<svg width="110" height="20" viewBox="0 0 110 20" fill="none" xmlns="http://www.w3.org/2000/svg">
<path d="M45.9369 1.89653C45.7325 1.193 45.4039 0.715778 45.0152 0.415432C44.6266 0.115115 44.1849 -0.0030095 43.7641 5.81123e-05C43.1401 0.00339308 42.6604 0.139172 42.2539 0.431135C41.85 0.721156 41.5274 1.15876 41.2046 1.74747L32.3293 20H37.4726L43.3486 7.69403L47.0189 20H51.2578L60.1038 7.79634L60.0597 20H64.4846L64.4527 2.50454C64.4527 1.64101 64.1793 1.02285 63.7592 0.617207C63.3403 0.212887 62.7855 0.0291876 62.2384 0.0145258C61.7296 0.000747542 61.2836 0.0864462 60.8551 0.331017C60.4287 0.574422 60.0272 0.970912 59.5989 1.56555L59.32 1.95289L49.7249 15.2785L45.9369 1.89653Z" fill="#EF3340"/>
<path fill-rule="evenodd" clip-rule="evenodd" d="M83.3052 4.65768C83.0324 3.77508 82.6232 3.20552 82.131 2.86975C81.6386 2.5339 81.0747 2.43998 80.5086 2.48636C79.7892 2.54765 79.0468 2.86127 78.2908 3.88423L67.4712 20H72.0946L74.2685 16.6324L82.1012 16.6249L82.9292 20H87.4154L83.3063 4.66127L83.3052 4.65768ZM81.3668 13.66H76.2389L79.9548 7.97098L81.3668 13.66Z" fill="#EF3340"/>
<path fill-rule="evenodd" clip-rule="evenodd" d="M13.5124 3.30033H4.80814L0.873535 20H5.49751L6.95578 13.8037H9.09453L13.0142 20H18.074L13.653 13.3909C15.5418 12.89 16.8262 12.1368 17.6721 11.2316C18.5388 10.304 18.9384 9.22414 19.0622 8.11223C19.1849 6.99693 18.9308 5.79056 18.0706 4.86273C17.21 3.93444 15.7568 3.30033 13.5124 3.30033ZM7.66183 10.8008L8.79184 6.02257H12.0498C12.9208 6.02257 13.5636 6.23197 13.9673 6.61547C14.3681 6.99614 14.5506 7.56515 14.467 8.32491C14.3802 9.09894 13.9671 9.71465 13.3122 10.1395C12.655 10.5658 11.7517 10.8008 10.6909 10.8008H7.66183Z" fill="#EF3340"/>
<path d="M31.3851 3.30033H26.8641L22.9569 20H27.534L31.3851 3.30033Z" fill="#EF3340"/>
<path d="M104.137 3.30033C96.4539 3.30033 91.5306 6.78711 90.9235 12.0192C90.6555 14.3359 91.3567 16.3378 93.0298 17.7574C94.6991 19.1736 97.3233 20 100.884 20C102.318 20 103.567 19.8803 105.32 19.6032L105.391 19.592L105.909 16.2803L105.779 16.2962L105.772 16.297L105.749 16.2997L105.66 16.31C105.582 16.3189 105.469 16.3316 105.326 16.3467C105.04 16.3768 104.636 16.4167 104.164 16.4556C103.22 16.5334 102.007 16.607 100.925 16.5907C99.1387 16.5653 97.7475 16.0576 96.8414 15.2538C95.9374 14.4518 95.5091 13.3494 95.6534 12.1123C96.0442 8.75086 99.1673 6.67797 103.607 6.71105C104.919 6.7209 106.603 6.80935 108.147 7.19723L108.243 7.22143L109.081 3.8483L108.983 3.82538C107.716 3.52793 105.552 3.30033 104.137 3.30033Z" fill="#EF3340"/>
</svg>
